<svg width="32" height="32" viewBox="0 0 32 32" fill="none" xmlns="http://www.w3.org/2000/svg">
<path fill-rule="evenodd" clip-rule="evenodd" d="M31.0986 16C31.0986 24.3387 24.3387 31.0986 16 31.0986C7.6613 31.0986 0.901408 24.3387 0.901408 16C0.901408 7.6613 7.6613 0.901408 16 0.901408C24.3387 0.901408 31.0986 7.6613 31.0986 16ZM32 16C32 24.8366 24.8366 32 16 32C7.16345 32 0 24.8366 0 16C0 7.16345 7.16345 0 16 0C24.8366 0 32 7.16345 32 16ZM9.46479 12.6197C9.46479 10.8773 10.8773 9.46479 12.6197 9.46479H19.3803C21.1227 9.46479 22.5352 10.8773 22.5352 12.6197V19.3803C22.5352 21.1227 21.1227 22.5352 19.3803 22.5352H12.6197C10.8773 22.5352 9.46479 21.1227 9.46479 19.3803V12.6197ZM8.11268 12.6197C8.11268 10.1306 10.1306 8.11268 12.6197 8.11268H19.3803C21.8695 8.11268 23.8873 10.1306 23.8873 12.6197V19.3803C23.8873 21.8695 21.8694 23.8873 19.3803 23.8873H12.6197C10.1306 23.8873 8.11268 21.8694 8.11268 19.3803V12.6197ZM18.7042 16.1127C18.7042 17.5439 17.5439 18.7042 16.1127 18.7042C14.6814 18.7042 13.5211 17.5439 13.5211 16.1127C13.5211 14.6814 14.6814 13.5211 16.1127 13.5211C17.5439 13.5211 18.7042 14.6814 18.7042 16.1127ZM20.0563 16.1127C20.0563 18.2907 18.2907 20.0563 16.1127 20.0563C13.9346 20.0563 12.169 18.2907 12.169 16.1127C12.169 13.9346 13.9346 12.169 16.1127 12.169C18.2907 12.169 20.0563 13.9346 20.0563 16.1127ZM21.1831 11.7183C21.1831 12.2162 20.7795 12.6197 20.2817 12.6197C19.7838 12.6197 19.3803 12.2162 19.3803 11.7183C19.3803 11.2205 19.7838 10.8169 20.2817 10.8169C20.7795 10.8169 21.1831 11.2205 21.1831 11.7183Z" fill="white"/>
</svg>
