<svg width="32" height="32" viewBox="0 0 32 32" fill="none" xmlns="http://www.w3.org/2000/svg">
<g clip-path="url(#clip0_108_10)">
<path d="M24 11.4205C23.448 11.6605 22.8555 11.8255 22.233 11.8975C22.869 11.5225 23.355 10.9285 23.586 10.222C22.989 10.5685 22.332 10.822 21.63 10.957C21.3403 10.6534 20.9918 10.4119 20.6058 10.2474C20.2197 10.0829 19.8042 9.99869 19.3845 10C17.685 10 16.308 11.3575 16.308 13.03C16.308 13.267 16.335 13.498 16.3875 13.72C15.1685 13.6621 13.9749 13.3508 12.883 12.8058C11.791 12.2609 10.8246 11.4943 10.0455 10.555C9.77184 11.0157 9.62777 11.5417 9.6285 12.0775C9.6285 13.1275 10.173 14.0575 10.998 14.599C10.5097 14.5837 10.0318 14.4537 9.603 14.2195V14.257C9.60763 14.9612 9.8562 15.642 10.3064 16.1835C10.7566 16.7251 11.3805 17.0938 12.072 17.227C11.618 17.3471 11.143 17.3645 10.6815 17.278C10.8827 17.8838 11.2675 18.4119 11.7825 18.7891C12.2976 19.1662 12.9172 19.3736 13.5555 19.3825C12.4604 20.2264 11.116 20.6823 9.7335 20.6785C9.486 20.6785 9.2415 20.6635 9 20.6365C10.4107 21.5294 12.0464 22.0024 13.716 22C19.377 22 22.4715 17.383 22.4715 13.378L22.461 12.985C23.0644 12.5609 23.5859 12.0308 24 11.4205V11.4205Z" fill="white"/>
<circle cx="16" cy="16" r="15.4" stroke="white" stroke-width="1.2"/>
</g>
<defs>
<clipPath id="clip0_108_10">
<rect width="32" height="32" fill="white"/>
</clipPath>
</defs>
</svg>
