<svg width="230" height="39" viewBox="0 0 230 39" fill="none" xmlns="http://www.w3.org/2000/svg">
<g clip-path="url(#clip0_5_3)">
<path d="M26.7994 0.869392C19.3964 0.865434 11.6722 2.58651 3.87617 4.81897C2.8862 5.02471 1.9202 5.69337 1.40941 6.52028C0.939829 7.29971 0.769245 8.08211 0.622618 8.90209C-0.134464 13.2819 -0.0424639 17.5827 0.114703 22.3483C0.149203 23.4393 0.306371 24.7321 0.79991 25.5184C1.31549 26.3127 2.19907 26.8172 3.2542 26.9823C4.60219 27.1865 5.95442 27.3595 7.30986 27.5016L7.01086 36.1051C6.96486 36.7895 7.28878 37.3583 7.69128 37.6857C8.05162 37.9686 8.45317 38.0942 8.86525 38.1258C9.68941 38.1902 10.6564 37.8261 11.1365 36.8825C13.24 32.7044 14.5597 30.8597 17.1903 28.0842C24.05 28.2584 30.0386 27.8646 36.8188 27.3473C39.2156 27.2831 40.8611 25.2603 41.2962 23.6451C42.5967 19.4591 42.7988 14.2919 42.9368 9.06827C42.9952 6.99802 42.2995 4.96537 41.0681 3.89118C39.897 2.91095 38.4786 2.55585 37.1792 2.19186C33.5693 1.34813 29.9583 0.895108 26.7994 0.869392ZM36.6608 4.1434C37.9623 4.50839 39.1093 4.85953 39.8329 5.46586C41.0402 6.79031 41.0002 7.67162 40.9829 9.1009C40.8468 14.1672 40.6111 19.0842 39.5033 22.8102C39.026 24.1999 38.1942 25.189 36.6223 25.3384C29.7148 25.8656 23.7212 26.2732 16.7782 26.0694C16.643 26.065 16.5084 26.0891 16.3826 26.1405C16.2568 26.1919 16.1426 26.2693 16.047 26.3681C13.1298 29.4087 11.6377 31.5215 9.41436 35.9388C9.36262 36.0398 9.25049 36.1011 9.11249 36.112C9.01954 36.1071 8.98217 36.0329 8.97641 35.9656L9.27733 26.6362C9.29554 26.1327 8.89304 25.652 8.40812 25.5975C6.78673 25.4378 5.16976 25.2332 3.55896 24.9843C2.8632 24.8746 2.60636 24.6777 2.41567 24.3849C2.08408 23.5689 2.09174 23.0644 2.06587 22.28C1.91062 17.557 1.83395 13.4294 2.53641 9.32247C2.60157 8.71514 2.82199 8.09398 3.05583 7.57469C3.44299 6.94956 4.0362 6.85756 4.63133 6.68744C12.2558 4.51433 19.7155 2.88919 26.7383 2.88424C30.1804 3.01283 33.7952 3.36891 36.6608 4.1434ZM10.3267 12.1454C9.27636 13.4441 9.38083 15.2077 10.1925 16.3888C10.6161 17.007 11.2774 17.5046 12.0824 17.6172C13.1279 17.7064 13.7911 17.2691 14.507 16.7666C15.8036 15.6035 15.9349 13.5737 14.9488 12.1079C14.4466 11.3611 13.6435 10.913 12.8232 10.8813C11.7 10.8932 10.9372 11.4105 10.3267 12.1445V12.1454ZM21.6888 11.0851C20.6422 11.1197 19.796 11.8675 19.2795 12.6746C18.6882 13.5975 18.3432 14.7528 18.8214 15.8853C19.7414 18.0643 22.9203 18.0377 24.188 15.8231C24.7727 14.8023 24.6231 13.6419 24.188 12.8002C23.7548 11.9595 23.0994 11.274 22.1459 11.1167C21.9948 11.0911 21.8418 11.0805 21.6888 11.0851ZM30.9126 11.2898C30.5869 11.2819 30.2513 11.3136 29.9372 11.3996C28.6798 11.7458 27.6093 13.0851 27.7711 14.7992C27.8536 15.6618 28.2379 16.5025 28.9309 17.0822C29.6238 17.6609 30.6299 17.92 31.6909 17.6955C32.9099 17.4382 33.6651 16.4245 33.917 15.4452C34.1692 14.466 34.1059 13.4679 33.5203 12.6588C33.2156 12.2407 32.8223 11.8999 32.3705 11.6627C31.9187 11.4254 31.4205 11.2979 30.9137 11.2898H30.9126ZM12.7379 12.8952C12.9727 12.8972 13.1576 12.9743 13.3483 13.2572C13.7748 13.8923 13.656 14.8547 13.2257 15.2404C12.7973 15.6262 12.5299 15.6599 12.3421 15.634C12.1543 15.6074 11.9635 15.4739 11.793 15.2246C11.4671 14.7499 11.3713 13.9822 11.7997 13.4343C12.0278 13.1217 12.4465 12.9269 12.7388 12.8952H12.7379ZM21.8258 13.1158C21.8623 13.1217 22.2703 13.366 22.466 13.7449C22.6613 14.1237 22.6979 14.4758 22.512 14.7992C21.9589 15.7647 20.7831 15.5036 20.6048 15.0832C20.5377 14.9229 20.5885 14.279 20.9115 13.7775C21.2326 13.274 21.6369 13.0851 21.8258 13.1148V13.1158ZM31.9495 13.8557C32.0091 13.9378 32.1538 14.4887 32.0415 14.9258C31.9284 15.3631 31.7444 15.6331 31.2942 15.7281C30.7173 15.8507 30.3931 15.7281 30.1507 15.5234C29.9074 15.3205 29.7434 14.9773 29.708 14.6103C29.6217 13.7003 29.938 13.4896 30.4402 13.3511C31.0247 13.2028 31.686 13.462 31.9495 13.8557Z" fill="white"/>
<path d="M55.209 4.9416C55.2244 4.68444 55.3154 4.45298 55.4842 4.24822C55.5663 4.14786 55.6693 4.06807 55.7857 4.01496C55.9022 3.96183 56.0288 3.93674 56.1558 3.9416H62.6975C62.9178 3.9416 63.1451 4.03656 63.3797 4.22548C63.4899 4.307 63.5794 4.41459 63.6405 4.5392C63.702 4.66382 63.7336 4.80183 63.7325 4.9416V15.7161H74.6776V4.9416C74.6776 4.66861 74.7696 4.43418 74.9527 4.23735C75.1367 4.03953 75.3743 3.94061 75.6685 3.94061H82.122C82.4153 3.94061 82.6721 4.01677 82.8924 4.1681C83.1129 4.32044 83.223 4.56278 83.223 4.89611V36.6965C83.223 37.0299 83.1272 37.2801 82.9356 37.4462C82.7457 37.6135 82.4957 37.6966 82.188 37.6966H75.6685C75.3752 37.6966 75.1367 37.6135 74.9527 37.4462C74.7696 37.2801 74.6776 37.0308 74.6776 36.6965V23.7854H63.7325V36.6965C63.7325 37.015 63.6327 37.2603 63.4354 37.4355C63.2371 37.6095 62.9687 37.6966 62.6304 37.6966H56.1558C55.5397 37.6966 55.2244 37.4008 55.209 36.8103V4.9416ZM115.464 37.3108C115.274 37.477 115.071 37.5829 114.859 37.6284C114.66 37.6725 114.457 37.6957 114.254 37.6975H110.929C110.664 37.6975 110.436 37.648 110.245 37.5492C110.053 37.4502 109.892 37.3177 109.76 37.1516C109.625 36.9789 109.514 36.7874 109.431 36.5828C109.342 36.3689 109.268 36.1488 109.21 35.9241L108.528 33.014C108.307 33.4838 107.988 34.018 107.569 34.6164C107.116 35.2514 106.579 35.8175 105.973 36.2979C105.327 36.8221 104.556 37.2613 103.661 37.6174C102.764 37.9735 101.737 38.1515 100.577 38.1515C98.9033 38.1515 97.3834 37.8182 96.0178 37.1516C94.6808 36.5067 93.4912 35.577 92.5275 34.4235C91.5663 33.2722 90.8206 31.927 90.2927 30.3879C89.7637 28.8507 89.4993 27.2098 89.4993 25.468V10.5786C89.4993 10.003 89.6208 9.56775 89.8633 9.27201C90.1049 8.97625 90.4902 8.82888 91.0192 8.82888H96.106C96.7384 8.82888 97.1708 8.93767 97.4054 9.15825C97.6402 9.37784 97.7582 9.80614 97.7582 10.4421V25.2395C97.7582 25.8923 97.9019 26.5096 98.1874 27.0931C98.4739 27.6767 98.8516 28.1911 99.3222 28.6382C99.7917 29.0852 100.324 29.4383 100.919 29.6955C101.513 29.9527 102.118 30.0813 102.736 30.0813C103.264 30.0813 103.811 29.9527 104.376 29.6955C104.946 29.4351 105.473 29.086 105.939 28.6609C106.417 28.2297 106.81 27.7212 107.118 27.1376C107.427 26.554 107.58 25.9368 107.58 25.2859V10.5104C107.58 10.2532 107.628 9.99605 107.724 9.73789C107.82 9.4807 107.962 9.28289 108.153 9.14638C108.344 9.02571 108.524 8.94262 108.693 8.89713C108.861 8.85162 109.057 8.82789 109.276 8.82789H114.254C114.885 8.82789 115.34 8.98813 115.619 9.30564C115.897 9.62414 116.037 10.0485 116.037 10.5786V36.0151C116.037 36.3019 115.975 36.5679 115.851 36.8103C115.726 37.0526 115.553 37.2426 115.333 37.378L115.464 37.3108ZM141.034 34.1733C140.637 34.5827 140.2 35.0219 139.723 35.4918C139.246 35.9616 138.721 36.4018 138.149 36.8103C137.573 37.2214 136.952 37.561 136.299 37.8222C135.617 38.0914 134.892 38.2263 134.162 38.2198C132.166 38.2198 130.327 37.834 128.645 37.0605C127.006 36.318 125.53 35.2392 124.307 33.8894C123.096 32.5482 122.149 30.9685 121.466 29.1495C120.783 27.3315 120.442 25.377 120.442 23.285C120.442 21.1781 120.783 19.2196 121.466 17.4095C122.149 15.5995 123.096 14.0228 124.307 12.6815C125.528 11.3331 127.005 10.2578 128.645 9.52226C130.327 8.75667 132.166 8.37388 134.162 8.37388C134.97 8.37388 135.708 8.49554 136.376 8.73788C137.021 8.96835 137.635 9.28139 138.204 9.66963C138.755 10.0485 139.261 10.4768 139.723 10.9535C140.185 11.4313 140.622 11.8971 141.034 12.3522V1.96334C141.034 1.47867 141.177 1.07016 141.463 0.736827C141.749 0.402501 142.179 0.236328 142.752 0.236328H147.706C147.898 0.236328 148.1 0.277872 148.312 0.360959C148.525 0.445035 148.719 0.561751 148.897 0.714077C149.072 0.865414 149.215 1.04741 149.325 1.25909C149.435 1.47175 149.491 1.70617 149.491 1.96334V35.9468C149.491 37.114 148.897 37.6975 147.706 37.6975H143.39C143.097 37.6975 142.869 37.658 142.708 37.5829C142.548 37.5088 142.408 37.3957 142.299 37.2534C142.177 37.0866 142.077 36.9033 142.002 36.7084C141.899 36.4518 141.789 36.1978 141.673 35.9468L141.034 34.1733ZM128.37 23.285C128.363 24.2409 128.516 25.1909 128.821 26.0931C129.122 26.9636 129.552 27.7182 130.111 28.3543C130.675 28.9953 131.36 29.5097 132.125 29.8657C132.911 30.2376 133.781 30.4225 134.735 30.4225C135.675 30.4225 136.559 30.2484 137.389 29.9003C138.195 29.567 138.931 29.0767 139.558 28.4562C140.18 27.8346 140.685 27.0986 141.045 26.286C141.419 25.4522 141.629 24.558 141.673 23.6035V23.285C141.676 22.3338 141.496 21.3913 141.144 20.5125C140.802 19.6509 140.305 18.8641 139.679 18.1939C139.052 17.5246 138.304 16.9881 137.477 16.6143C136.613 16.2236 135.679 16.0261 134.735 16.0347C133.781 16.0347 132.911 16.2276 132.125 16.6143C131.339 17.0001 130.668 17.5272 130.111 18.1939C129.544 18.8763 129.106 19.6629 128.821 20.5125C128.519 21.4033 128.367 22.341 128.371 23.285H128.37ZM175.06 34.1733C174.663 34.5827 174.226 35.0219 173.749 35.4918C173.272 35.9616 172.747 36.4018 172.175 36.8103C171.599 37.2214 170.978 37.561 170.325 37.8222C169.643 38.0914 168.918 38.2263 168.188 38.2198C166.192 38.2198 164.353 37.834 162.672 37.0605C161.032 36.3181 159.556 35.2392 158.332 33.8894C157.122 32.5482 156.174 30.9685 155.492 29.1495C154.81 27.3315 154.468 25.377 154.468 23.285C154.468 21.1781 154.81 19.2196 155.492 17.4095C156.174 15.5995 157.121 14.0228 158.332 12.6815C159.554 11.333 161.031 10.2577 162.672 9.52226C164.353 8.75667 166.192 8.37388 168.188 8.37388C168.996 8.37388 169.734 8.49554 170.402 8.73788C171.046 8.96835 171.66 9.28139 172.229 9.66963C172.78 10.0485 173.286 10.4768 173.749 10.9535C174.212 11.4313 174.648 11.8971 175.059 12.3522V1.96334C175.059 1.47867 175.203 1.07016 175.488 0.736827C175.776 0.402501 176.204 0.236328 176.778 0.236328H181.732C181.924 0.236328 182.125 0.277872 182.338 0.360959C182.552 0.445035 182.746 0.561751 182.922 0.714077C183.098 0.865414 183.242 1.04741 183.352 1.25909C183.461 1.47175 183.517 1.70617 183.517 1.96334V35.9468C183.517 37.114 182.922 37.6975 181.732 37.6975H177.416C177.123 37.6975 176.894 37.658 176.733 37.5829C176.574 37.5086 176.434 37.3956 176.326 37.2534C176.203 37.0866 176.104 36.9033 176.029 36.7084C175.925 36.4518 175.815 36.1978 175.698 35.9468L175.059 34.1733H175.06ZM162.396 23.285C162.388 24.2409 162.541 25.1909 162.847 26.0931C163.149 26.9636 163.579 27.7182 164.136 28.3543C164.7 28.9953 165.386 29.5098 166.152 29.8657C166.937 30.2376 167.807 30.4225 168.761 30.4225C169.7 30.4225 170.585 30.2484 171.415 29.9003C172.221 29.5672 172.958 29.0769 173.584 28.4562C174.206 27.8344 174.71 27.0984 175.07 26.286C175.445 25.4522 175.654 24.558 175.698 23.6035V23.285C175.702 22.3338 175.522 21.3913 175.169 20.5125C174.828 19.6509 174.331 18.8641 173.705 18.1939C173.077 17.5246 172.329 16.9881 171.503 16.6143C170.639 16.2236 169.704 16.0261 168.761 16.0347C167.807 16.0347 166.937 16.2276 166.152 16.6143C165.366 17.0001 164.694 17.5272 164.136 18.1939C163.569 18.8763 163.132 19.6629 162.847 20.5125C162.545 21.4033 162.392 22.341 162.397 23.285H162.396ZM189.376 1.98609C189.376 1.50143 189.493 1.09291 189.728 0.759576C189.963 0.425252 190.367 0.259079 190.939 0.259079H196.334C196.482 0.259079 196.636 0.300622 196.797 0.383708C196.966 0.473311 197.119 0.592823 197.249 0.736827C197.388 0.888163 197.505 1.07016 197.601 1.28184C197.697 1.4945 197.745 1.72892 197.745 1.98609V35.9468C197.745 36.5224 197.587 36.9577 197.271 37.2534C196.955 37.5492 196.548 37.6966 196.049 37.6966H190.939C190.367 37.6966 189.963 37.5481 189.728 37.2534C189.493 36.9577 189.376 36.5215 189.376 35.9468V1.98609ZM226.463 34.2415C225.187 35.4591 223.71 36.4326 222.102 37.1169C220.475 37.8091 218.732 38.1608 216.97 38.1515C214.959 38.1515 213.058 37.7727 211.267 37.0141C209.516 36.2838 207.917 35.2155 206.554 33.8667C205.196 32.5153 204.104 30.9058 203.339 29.1267C202.545 27.3088 202.15 25.3315 202.15 23.194C202.15 21.8606 202.306 20.5689 202.623 19.3186C202.928 18.0952 203.38 16.9159 203.967 15.8071C204.546 14.716 205.257 13.7041 206.081 12.7953C206.902 11.8849 207.839 11.0934 208.866 10.4421C209.911 9.78254 211.037 9.27025 212.214 8.91889C213.453 8.55048 214.736 8.36694 216.023 8.37388C217.242 8.37388 218.424 8.54103 219.57 8.87437C220.713 9.20771 221.79 9.67755 222.796 10.2829C223.803 10.8892 224.723 11.6172 225.56 12.4659C226.385 13.3004 227.111 14.2354 227.717 15.2503C228.32 16.2578 228.791 17.343 229.118 18.4778C229.447 19.6223 229.612 20.8003 229.612 22.012C229.612 22.8003 229.601 23.4442 229.578 23.9447C229.557 24.4443 229.443 24.8428 229.238 25.1376C229.031 25.4344 228.692 25.6381 228.213 25.7508C227.736 25.8656 227.035 25.922 226.111 25.922H210.254C210.401 26.8913 210.698 27.7024 211.146 28.3552C211.56 28.9731 212.087 29.5016 212.697 29.9112C213.286 30.2979 213.908 30.5739 214.571 30.742C215.183 30.902 215.812 30.9857 216.443 30.9913C216.97 30.9913 217.512 30.9338 218.072 30.8212C218.62 30.7098 219.163 30.5578 219.69 30.3661C220.186 30.1888 220.663 29.9681 221.121 29.7064C221.555 29.4572 221.904 29.195 222.167 28.923C222.404 28.7252 222.604 28.5778 222.773 28.4789C222.942 28.38 223.123 28.3315 223.313 28.3315C223.505 28.3315 223.699 28.4007 223.898 28.5363C224.14 28.7104 224.364 28.9082 224.569 29.1267L226.902 31.8547C227.065 32.0525 227.168 32.2306 227.213 32.3889C227.257 32.5482 227.278 32.7114 227.278 32.8775C227.278 33.1812 227.196 33.4423 227.035 33.6619C226.873 33.8828 226.679 34.078 226.461 34.2415H226.463ZM215.871 15.3067C215.297 15.3067 214.742 15.4244 214.208 15.6588C213.664 15.8984 213.155 16.216 212.697 16.6025C212.229 16.9961 211.807 17.4432 211.431 17.9437C211.075 18.4155 210.768 18.9263 210.518 19.4669H221.771C221.475 18.8971 221.142 18.35 220.77 17.83C220.416 17.3366 220.002 16.8932 219.536 16.5115C219.061 16.1251 218.523 15.8254 217.951 15.6252C217.356 15.4125 216.662 15.3067 215.871 15.3067Z" fill="white"/>
</g>
<defs>
<clipPath id="clip0_5_3">
<rect width="230" height="38.576" fill="white"/>
</clipPath>
</defs>
</svg>
